<svg xmlns="http://www.w3.org/2000/svg" xmlns:xlink="http://www.w3.org/1999/xlink" width="500" zoomAndPan="magnify" viewBox="0 0 375 374.999991" height="500" preserveAspectRatio="xMidYMid meet" version="1.0"><defs><clipPath id="af2b6f9a44"><path d="M 0 22.5 L 375 22.5 L 375 352.5 L 0 352.5 Z M 0 22.5 " clip-rule="nonzero"/></clipPath></defs><rect x="-37.5" width="450" fill="#ffffff" y="-37.499999" height="449.999989" fill-opacity="1"/><g clip-path="url(#af2b6f9a44)"><path fill="#000000" d="M 374.152344 187.457031 C 374.152344 162.089844 334.46875 143.328125 281.636719 133.222656 C 285.949219 120.820312 289.492188 108.816406 291.953125 97.605469 C 300.140625 60.179688 296.183594 34.679688 280.824219 25.816406 C 277.023438 23.621094 272.640625 22.5 267.796875 22.5 C 246.816406 22.5 217.550781 43.648438 187.503906 78.496094 C 157.46875 43.648438 128.199219 22.5 107.203125 22.5 C 102.371094 22.5 97.980469 23.621094 94.171875 25.816406 C 72.179688 38.507812 75.8125 82.335938 93.515625 133.203125 C 40.609375 143.285156 0.847656 162.0625 0.847656 187.457031 C 0.847656 212.839844 40.546875 231.589844 93.390625 241.703125 C 89.054688 254.109375 85.511719 266.101562 83.0625 277.3125 C 74.871094 314.742188 78.820312 340.242188 94.171875 349.101562 C 97.980469 351.300781 102.371094 352.410156 107.203125 352.410156 C 128.199219 352.410156 157.464844 331.253906 187.503906 296.421875 C 217.542969 331.253906 246.804688 352.417969 267.796875 352.417969 C 272.640625 352.417969 277.027344 351.300781 280.824219 349.101562 C 296.183594 340.242188 300.140625 314.742188 291.949219 277.3125 C 289.492188 266.101562 285.949219 254.109375 281.625 241.703125 C 334.46875 231.59375 374.152344 212.839844 374.152344 187.457031 Z M 267.796875 32.144531 C 270.925781 32.144531 273.691406 32.84375 276.007812 34.171875 C 287.265625 40.671875 289.636719 63.039062 282.527344 95.542969 C 280.058594 106.824219 276.449219 118.929688 272.023438 131.492188 C 256.472656 128.898438 239.976562 127.035156 223.136719 125.929688 C 213.535156 111.421875 203.703125 98.066406 193.890625 86.101562 C 222.191406 53.019531 249.640625 32.144531 267.796875 32.144531 Z M 233.460938 213.980469 C 228.328125 222.863281 223.03125 231.46875 217.625 239.738281 C 207.929688 240.234375 197.890625 240.507812 187.503906 240.507812 C 177.117188 240.507812 167.070312 240.234375 157.390625 239.738281 C 151.96875 231.464844 146.675781 222.863281 141.554688 213.980469 C 136.371094 205 131.589844 196.171875 127.183594 187.546875 C 131.679688 178.703125 136.433594 169.804688 141.5625 160.933594 C 146.675781 152.058594 151.976562 143.460938 157.390625 135.171875 C 167.070312 134.679688 177.117188 134.40625 187.503906 134.40625 C 197.890625 134.40625 207.933594 134.679688 217.625 135.171875 C 223.03125 143.464844 228.324219 152.058594 233.449219 160.933594 C 238.5625 169.777344 243.304688 178.652344 247.792969 187.457031 C 243.304688 196.277344 238.566406 205.148438 233.460938 213.980469 Z M 253.09375 198.210938 C 259.015625 210.539062 264.292969 222.691406 268.773438 234.496094 C 256.640625 236.441406 243.542969 237.953125 229.621094 238.984375 C 233.742188 232.453125 237.808594 225.71875 241.808594 218.8125 C 245.773438 211.953125 249.496094 205.070312 253.09375 198.210938 Z M 210.996094 249.652344 C 203.277344 260.921875 195.382812 271.503906 187.503906 281.171875 C 179.628906 271.5 171.75 260.917969 164.007812 249.652344 C 171.828125 249.980469 179.671875 250.167969 187.503906 250.167969 C 195.339844 250.164062 203.1875 249.980469 210.996094 249.652344 Z M 145.394531 238.984375 C 131.460938 237.953125 118.363281 236.4375 106.234375 234.496094 C 110.722656 222.710938 115.984375 210.550781 121.902344 198.210938 C 125.523438 205.144531 129.289062 212.027344 133.199219 218.8125 C 137.199219 225.71875 141.265625 232.453125 145.394531 238.984375 Z M 121.863281 176.816406 C 115.753906 164.164062 110.492188 151.980469 106.085938 140.453125 C 118.257812 138.511719 131.398438 136.976562 145.394531 135.929688 C 141.261719 142.464844 137.195312 149.191406 133.195312 156.113281 C 129.210938 163.007812 125.488281 169.929688 121.863281 176.816406 Z M 164.023438 125.28125 C 171.75 114.011719 179.628906 103.425781 187.503906 93.742188 C 195.382812 103.425781 203.277344 114.011719 210.996094 125.28125 C 203.183594 124.941406 195.339844 124.757812 187.503906 124.757812 C 179.671875 124.761719 171.828125 124.941406 164.023438 125.28125 Z M 241.808594 156.113281 C 237.8125 149.171875 233.746094 142.464844 229.621094 135.929688 C 243.542969 136.976562 256.640625 138.492188 268.773438 140.425781 C 264.292969 152.210938 259.015625 164.390625 253.09375 176.71875 C 249.496094 169.859375 245.773438 162.96875 241.808594 156.113281 Z M 99.003906 34.171875 C 101.316406 32.832031 104.082031 32.144531 107.203125 32.144531 C 125.359375 32.144531 152.808594 53.019531 181.117188 86.101562 C 171.3125 98.066406 161.472656 111.421875 151.871094 125.929688 C 134.976562 127.035156 118.417969 128.925781 102.804688 131.53125 C 84.566406 80.039062 84.003906 42.828125 99.003906 34.171875 Z M 10.5 187.457031 C 10.5 170.148438 43 152.019531 96.714844 142.070312 C 102.265625 156.902344 108.914062 172.191406 116.414062 187.386719 C 108.722656 202.84375 102.070312 218.105469 96.542969 232.808594 C 42.921875 222.863281 10.5 204.75 10.5 187.457031 Z M 107.203125 342.773438 C 104.035156 342.773438 101.363281 342.105469 99.003906 340.761719 C 87.75 334.261719 85.371094 311.890625 92.488281 279.386719 C 94.957031 268.101562 98.558594 255.984375 102.992188 243.425781 C 118.542969 246.023438 135.042969 247.886719 151.863281 248.992188 C 161.472656 263.492188 171.300781 276.847656 181.109375 288.824219 C 152.8125 321.898438 125.359375 342.773438 107.203125 342.773438 Z M 282.511719 279.382812 C 289.632812 311.886719 287.261719 334.257812 276.007812 340.757812 C 273.679688 342.085938 270.925781 342.773438 267.796875 342.773438 C 249.640625 342.773438 222.191406 321.898438 193.890625 288.820312 C 203.703125 276.84375 213.535156 263.488281 223.148438 248.988281 C 239.976562 247.882812 256.472656 246.019531 272.023438 243.421875 C 276.449219 255.984375 280.058594 268.097656 282.511719 279.382812 Z M 278.460938 232.8125 C 272.949219 218.128906 266.3125 202.894531 258.636719 187.460938 C 266.3125 172.027344 272.949219 156.789062 278.464844 142.113281 C 332.078125 152.0625 364.507812 170.183594 364.507812 187.460938 C 364.507812 204.75 332.078125 222.863281 278.460938 232.8125 Z M 278.460938 232.8125 " fill-opacity="1" fill-rule="nonzero"/></g><path fill="#000000" d="M 208.003906 187.457031 C 208.003906 188.128906 207.972656 188.800781 207.90625 189.46875 C 207.839844 190.136719 207.742188 190.800781 207.613281 191.457031 C 207.480469 192.117188 207.316406 192.769531 207.121094 193.410156 C 206.929688 194.054688 206.703125 194.683594 206.445312 195.304688 C 206.1875 195.925781 205.902344 196.53125 205.585938 197.125 C 205.269531 197.714844 204.921875 198.289062 204.550781 198.847656 C 204.175781 199.40625 203.777344 199.945312 203.351562 200.464844 C 202.925781 200.984375 202.476562 201.480469 202 201.957031 C 201.527344 202.429688 201.027344 202.882812 200.511719 203.308594 C 199.992188 203.734375 199.453125 204.132812 198.894531 204.503906 C 198.335938 204.878906 197.761719 205.222656 197.167969 205.539062 C 196.574219 205.855469 195.96875 206.144531 195.347656 206.398438 C 194.730469 206.65625 194.097656 206.882812 193.457031 207.078125 C 192.8125 207.273438 192.160156 207.4375 191.503906 207.566406 C 190.84375 207.699219 190.179688 207.796875 189.511719 207.863281 C 188.84375 207.929688 188.175781 207.960938 187.503906 207.960938 C 186.832031 207.960938 186.164062 207.929688 185.496094 207.863281 C 184.824219 207.796875 184.164062 207.699219 183.503906 207.566406 C 182.84375 207.4375 182.195312 207.273438 181.550781 207.078125 C 180.910156 206.882812 180.277344 206.65625 179.65625 206.398438 C 179.039062 206.144531 178.429688 205.855469 177.839844 205.539062 C 177.246094 205.222656 176.671875 204.878906 176.113281 204.503906 C 175.554688 204.132812 175.015625 203.734375 174.496094 203.308594 C 173.976562 202.882812 173.480469 202.429688 173.007812 201.957031 C 172.53125 201.480469 172.082031 200.984375 171.65625 200.464844 C 171.230469 199.945312 170.832031 199.40625 170.457031 198.847656 C 170.085938 198.289062 169.738281 197.714844 169.421875 197.125 C 169.105469 196.53125 168.820312 195.925781 168.5625 195.304688 C 168.304688 194.683594 168.078125 194.054688 167.882812 193.410156 C 167.691406 192.769531 167.527344 192.117188 167.394531 191.457031 C 167.265625 190.800781 167.167969 190.136719 167.101562 189.46875 C 167.035156 188.800781 167 188.128906 167 187.457031 C 167 186.789062 167.035156 186.117188 167.101562 185.449219 C 167.167969 184.78125 167.265625 184.117188 167.394531 183.460938 C 167.527344 182.800781 167.691406 182.148438 167.882812 181.507812 C 168.078125 180.863281 168.304688 180.234375 168.5625 179.613281 C 168.820312 178.992188 169.105469 178.386719 169.421875 177.792969 C 169.738281 177.203125 170.085938 176.628906 170.457031 176.070312 C 170.832031 175.511719 171.230469 174.972656 171.65625 174.453125 C 172.082031 173.933594 172.53125 173.4375 173.007812 172.960938 C 173.480469 172.488281 173.976562 172.035156 174.496094 171.609375 C 175.015625 171.183594 175.554688 170.785156 176.113281 170.414062 C 176.671875 170.039062 177.246094 169.695312 177.839844 169.378906 C 178.429688 169.0625 179.039062 168.773438 179.65625 168.519531 C 180.277344 168.261719 180.910156 168.035156 181.550781 167.839844 C 182.195312 167.644531 182.84375 167.480469 183.503906 167.351562 C 184.164062 167.21875 184.824219 167.121094 185.496094 167.054688 C 186.164062 166.988281 186.832031 166.957031 187.503906 166.957031 C 188.175781 166.957031 188.84375 166.988281 189.511719 167.054688 C 190.179688 167.121094 190.84375 167.21875 191.503906 167.351562 C 192.160156 167.480469 192.8125 167.644531 193.457031 167.839844 C 194.097656 168.035156 194.730469 168.261719 195.347656 168.519531 C 195.96875 168.773438 196.574219 169.0625 197.167969 169.378906 C 197.761719 169.695312 198.335938 170.039062 198.894531 170.414062 C 199.453125 170.785156 199.992188 171.183594 200.511719 171.609375 C 201.027344 172.035156 201.527344 172.488281 202 172.960938 C 202.476562 173.4375 202.925781 173.933594 203.351562 174.453125 C 203.777344 174.972656 204.175781 175.511719 204.550781 176.070312 C 204.921875 176.628906 205.269531 177.203125 205.585938 177.792969 C 205.902344 178.386719 206.1875 178.992188 206.445312 179.613281 C 206.703125 180.234375 206.929688 180.863281 207.121094 181.507812 C 207.316406 182.148438 207.480469 182.800781 207.613281 183.460938 C 207.742188 184.117188 207.839844 184.78125 207.90625 185.449219 C 207.972656 186.117188 208.003906 186.789062 208.003906 187.457031 Z M 208.003906 187.457031 " fill-opacity="1" fill-rule="nonzero"/></svg>